<svg xmlns="http://www.w3.org/2000/svg" viewBox="1200 1400 9000 1200">
	<path d="M 1200 1400 L 1200 2600 L 1600 2600 L 1600 1400 L 1200 1400 
			 M 1600 1400 C 2000 1400 2200 1400 2200 2000 L 2200 2000 C 2200 2600 2000 2600 1600 2600 L 1600 2600 L 1600 2400 C 1800 2400 2000 2400 2000 2000 C 2000 1600 1800 1600 1600 1600 M 2400 1400 L 3200 1400 L 3200 1800 L 2400 1800 L 2400 1400 M 2400 2600 L 3200 2600 L 3200 2200 L 2400 2200 L 2400 2600 M 3400 1400 
			 L 3800 2600 L 4200 2600 L 4600 1400 L 4200 1400 L 4000 2000 C 4000 2000 3800 1400 3800 1400 L 3800 1400 L 3400 1400 L 3400 1400 Z Z M 5600 2600 L 6000 2600 C 6200 2400 6400 1800 6400 1400 L 6400 1400 L 6000 1400 C 6000 2000 5800 2200 5800 2200 L 5800 2200 C 5800 2200 5600 2000 5600 1400 L 5600 1400 L 5200 1400 C 5200 1800 5400 2400 5600 2600 M 6600 1400 L 6400 2600 L 6800 2600 L 7000 1400 L 6600 1400 L 6800 1400 M 7200 1400 L 7200 1800 L 7400 1800 C 7800 1800 7400 2600 7600 2600 L 7600 2600 L 7800 2600 C 8000 2600 7600 1800 8000 1800 M 8200 1800 L 8200 1800 L 8200 1400 L 7400 1400 M 7200 1600 C 7200 1600 7200 1600 7200 1800 M 9400 1400 L 9400 2600 L 9600 2600 L 9600 2200 L 9800 2200 L 9800 2000 L 9600 2200 C 10200 2000 10200 1400 9800 1400 L 9800 1400 L 9400 1400 M 10000 2600 L 10200 2600 C 10000 2200 10000 2200 9600 2000 L 9600 2200 L 9600 2200 C 10000 2400 10000 2600 10000 2600 L 10200 2600 M 8800 1400 c -600 0 -600 1200 0 1200 L 8800 2600 M 8800 1400 C 9400 1400 9400 2600 8800 2600 L 8800 2200 C 9000 2200 9000 1800 8800 1800 M 8800 2200 C 8600 2200 8600 1800 8800 1800 M 9600 1600 C 9800 1600 10000 1600 9800 1800 M 9800 1800 C 9600 2000 9600 1800 9600 1600" fill="#FBBF24"/>

</svg>